<svg width="512" height="512" version="1.1" xmlns="http://www.w3.org/2000/svg" desc="Created with imagetracer.js version 1.2.6" ><path fill="rgb(0,0,0)" stroke="rgb(0,0,0)" stroke-width="1" opacity="0" d="M 0 0 L 512 0 L 512 195.5 L 511 195.5 L 505.5 189 L 496.5 187 L 463.5 185 L 462.5 184 L 452.5 184 L 451.5 183 L 441.5 183 L 440.5 182 L 430.5 182 L 429.5 181 L 419.5 181 L 418.5 180 L 408.5 180 L 407.5 179 L 385.5 178 L 384.5 177 L 374.5 177 L 373.5 176 L 363.5 176 L 362.5 175 L 352.5 175 L 351.5 174 L 334 173 L 270 21.5 L 264.5 14 L 261.5 12 L 255.5 11 L 250.5 12 L 244 17.5 L 219 77.5 L 215 83.5 L 215 85.5 L 178 173 L 160.5 174 L 159.5 175 L 149.5 175 L 148.5 176 L 138.5 176 L 137.5 177 L 127.5 177 L 126.5 178 L 104.5 179 L 103.5 180 L 93.5 180 L 92.5 181 L 82.5 181 L 81.5 182 L 71.5 182 L 70.5 183 L 60.5 183 L 59.5 184 L 49.5 184 L 48.5 185 L 15.5 187 L 6.5 189 L 1 194.5 L 0.5 196 L 0 0 Z " /><path fill="rgb(0,0,0)" stroke="rgb(0,0,0)" stroke-width="1" opacity="0" d="M 511.5 206 L 512 512 L 0 512 L 0 207.5 L 1 207.5 L 9.5 217 L 30 234.5 Q 29.3 236.8 31.5 236 L 67 266.5 Q 66.3 268.8 68.5 268 L 74 272 Q 72.9 274.7 75.5 274 L 94 290.5 Q 93.3 292.8 95.5 292 L 130 321.5 L 117 374.5 L 117 378.5 L 114 385.5 L 115 387.5 L 109 409.5 L 101 448.5 L 98 455.5 L 99 457.5 L 93 479.5 L 92 488.5 L 96 498 L 106.5 501 L 113.5 499 L 190.5 452 L 192 452.5 Q 191.3 450.3 193.5 451 L 252.5 415 L 257.5 414 L 275 424 L 275 426 Q 278.8 424.5 278 427.5 L 281 428.5 L 281.5 430 L 283.5 430 L 375 484 L 375.5 486 Q 376.7 483.8 378 486.5 L 378.5 488 L 380.5 488 L 401.5 501 L 404.5 500 L 406.5 501 L 411.5 500 L 418 494.5 Q 420.7 491.2 420 484.5 L 382 321.5 L 422.5 286 L 424 286.5 L 430.5 279 L 511 208.5 L 511.5 206 Z " /><path fill="rgb(246,246,246)" stroke="rgb(246,246,246)" stroke-width="1" opacity="0.27058823529411763" d="M 250.5 12 L 252 12.5 L 249.5 14 L 250.5 12 Z " /><path fill="rgb(246,246,246)" stroke="rgb(246,246,246)" stroke-width="1" opacity="0.27058823529411763" d="M 260.5 12 L 263 13.5 L 261.5 13 L 260.5 12 Z " /><path fill="rgb(246,246,246)" stroke="rgb(246,246,246)" stroke-width="1" opacity="0.27058823529411763" d="M 247.5 14 L 245 17.5 L 243.5 21 L 243 19.5 L 247.5 14 Z " /><path fill="rgb(246,246,246)" stroke="rgb(246,246,246)" stroke-width="1" opacity="0.27058823529411763" d="M 264.5 14 L 266.5 17 L 264.5 14 Z " /><path fill="rgb(246,246,246)" stroke="rgb(246,246,246)" stroke-width="1" opacity="0.27058823529411763" d="M 267.5 18 L 270 22.5 L 269 22.5 L 267.5 18 Z " /><path fill="rgb(246,246,246)" stroke="rgb(246,246,246)" stroke-width="1" opacity="0.27058823529411763" d="M 271.5 26 L 273 29.5 L 272 29.5 L 271.5 26 Z " /><path fill="rgb(246,246,246)" stroke="rgb(246,246,246)" stroke-width="1" opacity="0.27058823529411763" d="M 237.5 33 L 238 34.5 L 236.5 37 L 236 35.5 L 237.5 33 Z " /><path fill="rgb(246,246,246)" stroke="rgb(246,246,246)" stroke-width="1" opacity="0.27058823529411763" d="M 216.5 82 L 217 84 L 215 83.5 L 216.5 82 Z " /><path fill="rgb(246,246,246)" stroke="rgb(246,246,246)" stroke-width="1" opacity="0.27058823529411763" d="M 205.5 108 L 206 109.5 L 204.5 112 L 204 109.5 L 205.5 108 Z " /><path fill="rgb(246,246,246)" stroke="rgb(246,246,246)" stroke-width="1" opacity="0.27058823529411763" d="M 306.5 108 L 308 111.5 L 307 111.5 L 306.5 108 Z " /><path fill="rgb(246,246,246)" stroke="rgb(246,246,246)" stroke-width="1" opacity="0.27058823529411763" d="M 309.5 115 L 311 118.5 L 310 118.5 L 309.5 115 Z " /><path fill="rgb(246,246,246)" stroke="rgb(246,246,246)" stroke-width="1" opacity="0.27058823529411763" d="M 312.5 122 L 314 125.5 L 313 125.5 L 312.5 122 Z " /><path fill="rgb(246,246,246)" stroke="rgb(246,246,246)" stroke-width="1" opacity="0.27058823529411763" d="M 196.5 129 L 197 130.5 L 195.5 133 L 195 131.5 L 196.5 129 Z " /><path fill="rgb(246,246,246)" stroke="rgb(246,246,246)" stroke-width="1" opacity="0.27058823529411763" d="M 171.5 173 L 177 173.5 L 171.5 174 L 171.5 173 Z " /><path fill="rgb(246,246,246)" stroke="rgb(246,246,246)" stroke-width="1" opacity="0.27058823529411763" d="M 335.5 173 L 341 173.5 L 335.5 174 L 335.5 173 Z " /><path fill="rgb(246,246,246)" stroke="rgb(246,246,246)" stroke-width="1" opacity="0.27058823529411763" d="M 160.5 174 L 166 174.5 L 160.5 175 L 160.5 174 Z " /><path fill="rgb(246,246,246)" stroke="rgb(246,246,246)" stroke-width="1" opacity="0.27058823529411763" d="M 346.5 174 L 352 174.5 L 346.5 175 L 346.5 174 Z " /><path fill="rgb(246,246,246)" stroke="rgb(246,246,246)" stroke-width="1" opacity="0.27058823529411763" d="M 149.5 175 L 154 175.5 L 149.5 176 L 149.5 175 Z " /><path fill="rgb(246,246,246)" stroke="rgb(246,246,246)" stroke-width="1" opacity="0.27058823529411763" d="M 358.5 175 L 363 175.5 L 358.5 176 L 358.5 175 Z " /><path fill="rgb(246,246,246)" stroke="rgb(246,246,246)" stroke-width="1" opacity="0.27058823529411763" d="M 138.5 176 L 143 176.5 L 138.5 177 L 138.5 176 Z " /><path fill="rgb(246,246,246)" stroke="rgb(246,246,246)" stroke-width="1" opacity="0.27058823529411763" d="M 369.5 176 L 374 176.5 L 369.5 177 L 369.5 176 Z " /><path fill="rgb(246,246,246)" stroke="rgb(246,246,246)" stroke-width="1" opacity="0.27058823529411763" d="M 127.5 177 L 132 177.5 L 127.5 178 L 127.5 177 Z " /><path fill="rgb(246,246,246)" stroke="rgb(246,246,246)" stroke-width="1" opacity="0.27058823529411763" d="M 380.5 177 L 385 177.5 L 380.5 178 L 380.5 177 Z " /><path fill="rgb(246,246,246)" stroke="rgb(246,246,246)" stroke-width="1" opacity="0.27058823529411763" d="M 115.5 178 L 121 178.5 L 115.5 179 L 115.5 178 Z " /><path fill="rgb(246,246,246)" stroke="rgb(246,246,246)" stroke-width="1" opacity="0.27058823529411763" d="M 391.5 178 L 397 178.5 L 391.5 179 L 391.5 178 Z " /><path fill="rgb(246,246,246)" stroke="rgb(246,246,246)" stroke-width="1" opacity="0.27058823529411763" d="M 104.5 179 L 110 179.5 L 104.5 180 L 104.5 179 Z " /><path fill="rgb(246,246,246)" stroke="rgb(246,246,246)" stroke-width="1" opacity="0.27058823529411763" d="M 402.5 179 L 408 179.5 L 402.5 180 L 402.5 179 Z " /><path fill="rgb(246,246,246)" stroke="rgb(246,246,246)" stroke-width="1" opacity="0.27058823529411763" d="M 93.5 180 L 99 180.5 L 93.5 181 L 93.5 180 Z " /><path fill="rgb(246,246,246)" stroke="rgb(246,246,246)" stroke-width="1" opacity="0.27058823529411763" d="M 413.5 180 L 419 180.5 L 413.5 181 L 413.5 180 Z " /><path fill="rgb(246,246,246)" stroke="rgb(246,246,246)" stroke-width="1" opacity="0.27058823529411763" d="M 82.5 181 L 88 181.5 L 82.5 182 L 82.5 181 Z " /><path fill="rgb(246,246,246)" stroke="rgb(246,246,246)" stroke-width="1" opacity="0.27058823529411763" d="M 424.5 181 L 430 181.5 L 424.5 182 L 424.5 181 Z " /><path fill="rgb(246,246,246)" stroke="rgb(246,246,246)" stroke-width="1" opacity="0.27058823529411763" d="M 71.5 182 L 76 182.5 L 71.5 183 L 71.5 182 Z " /><path fill="rgb(246,246,246)" stroke="rgb(246,246,246)" stroke-width="1" opacity="0.27058823529411763" d="M 436.5 182 L 441 182.5 L 436.5 183 L 436.5 182 Z " /><path fill="rgb(246,246,246)" stroke="rgb(246,246,246)" stroke-width="1" opacity="0.27058823529411763" d="M 60.5 183 L 65 183.5 L 60.5 184 L 60.5 183 Z " /><path fill="rgb(246,246,246)" stroke="rgb(246,246,246)" stroke-width="1" opacity="0.27058823529411763" d="M 447.5 183 L 452 183.5 L 447.5 184 L 447.5 183 Z " /><path fill="rgb(246,246,246)" stroke="rgb(246,246,246)" stroke-width="1" opacity="0.27058823529411763" d="M 49.5 184 L 54 184.5 L 49.5 185 L 49.5 184 Z " /><path fill="rgb(246,246,246)" stroke="rgb(246,246,246)" stroke-width="1" opacity="0.27058823529411763" d="M 458.5 184 L 463 184.5 L 458.5 185 L 458.5 184 Z " /><path fill="rgb(246,246,246)" stroke="rgb(246,246,246)" stroke-width="1" opacity="0.27058823529411763" d="M 37.5 185 L 43 185.5 L 37.5 186 L 37.5 185 Z " /><path fill="rgb(246,246,246)" stroke="rgb(246,246,246)" stroke-width="1" opacity="0.27058823529411763" d="M 469.5 185 L 475 185.5 L 469.5 186 L 469.5 185 Z " /><path fill="rgb(246,246,246)" stroke="rgb(246,246,246)" stroke-width="1" opacity="0.27058823529411763" d="M 26.5 186 L 32 186.5 L 26.5 187 L 26.5 186 Z " /><path fill="rgb(246,246,246)" stroke="rgb(246,246,246)" stroke-width="1" opacity="0.27058823529411763" d="M 480.5 186 L 486 186.5 L 480.5 187 L 480.5 186 Z " /><path fill="rgb(246,246,246)" stroke="rgb(246,246,246)" stroke-width="1" opacity="0.27058823529411763" d="M 15.5 187 L 21 187.5 L 15.5 188 L 15.5 187 Z " /><path fill="rgb(246,246,246)" stroke="rgb(246,246,246)" stroke-width="1" opacity="0.27058823529411763" d="M 491.5 187 L 497 187.5 L 491.5 188 L 491.5 187 Z " /><path fill="rgb(246,246,246)" stroke="rgb(246,246,246)" stroke-width="1" opacity="0.27058823529411763" d="M 6.5 189 L 8 189.5 L 1.5 195 L 6.5 189 Z " /><path fill="rgb(246,246,246)" stroke="rgb(246,246,246)" stroke-width="1" opacity="0.27058823529411763" d="M 504.5 189 L 511 194.5 L 505.5 190 L 504.5 189 Z " /><path fill="rgb(246,246,246)" stroke="rgb(246,246,246)" stroke-width="1" opacity="0.27058823529411763" d="M 1.5 208 L 9.5 217 L 1.5 208 Z " /><path fill="rgb(246,246,246)" stroke="rgb(246,246,246)" stroke-width="1" opacity="0.27058823529411763" d="M 510.5 208 L 501.5 218 L 510.5 208 Z " /><path fill="rgb(246,246,246)" stroke="rgb(246,246,246)" stroke-width="1" opacity="0.27058823529411763" d="M 12.5 218 L 18.5 225 L 12.5 218 Z " /><path fill="rgb(246,246,246)" stroke="rgb(246,246,246)" stroke-width="1" opacity="0.27058823529411763" d="M 499.5 218 L 494.5 224 L 499.5 218 Z " /><path fill="rgb(246,246,246)" stroke="rgb(246,246,246)" stroke-width="1" opacity="0.27058823529411763" d="M 20.5 225 L 26.5 232 L 20.5 225 Z " /><path fill="rgb(246,246,246)" stroke="rgb(246,246,246)" stroke-width="1" opacity="0.27058823529411763" d="M 491.5 225 L 486.5 231 L 491.5 225 Z " /><path fill="rgb(246,246,246)" stroke="rgb(246,246,246)" stroke-width="1" opacity="0.27058823529411763" d="M 28.5 232 L 33.5 238 L 30 236 L 28.5 232 Z " /><path fill="rgb(246,246,246)" stroke="rgb(246,246,246)" stroke-width="1" opacity="0.27058823529411763" d="M 483.5 232 L 478.5 238 L 483.5 232 Z " /><path fill="rgb(246,246,246)" stroke="rgb(246,246,246)" stroke-width="1" opacity="0.27058823529411763" d="M 36.5 239 L 41.5 245 L 36.5 239 Z " /><path fill="rgb(246,246,246)" stroke="rgb(246,246,246)" stroke-width="1" opacity="0.27058823529411763" d="M 475.5 239 L 470.5 245 L 475.5 239 Z " /><path fill="rgb(246,246,246)" stroke="rgb(246,246,246)" stroke-width="1" opacity="0.27058823529411763" d="M 44.5 246 L 49.5 252 L 44.5 246 Z " /><path fill="rgb(246,246,246)" stroke="rgb(246,246,246)" stroke-width="1" opacity="0.27058823529411763" d="M 467.5 246 L 462.5 252 L 467.5 246 Z " /><path fill="rgb(246,246,246)" stroke="rgb(246,246,246)" stroke-width="1" opacity="0.27058823529411763" d="M 52.5 253 L 57.5 259 L 52.5 253 Z " /><path fill="rgb(246,246,246)" stroke="rgb(246,246,246)" stroke-width="1" opacity="0.27058823529411763" d="M 459.5 253 L 454.5 259 L 459.5 253 Z " /><path fill="rgb(246,246,246)" stroke="rgb(246,246,246)" stroke-width="1" opacity="0.27058823529411763" d="M 60.5 260 L 64.5 265 L 60.5 260 Z " /><path fill="rgb(246,246,246)" stroke="rgb(246,246,246)" stroke-width="1" opacity="0.27058823529411763" d="M 451.5 260 L 446.5 266 L 451.5 260 Z " /><path fill="rgb(246,246,246)" stroke="rgb(246,246,246)" stroke-width="1" opacity="0.27058823529411763" d="M 67.5 266 L 72.5 272 L 67 268 L 67.5 266 Z " /><path fill="rgb(246,246,246)" stroke="rgb(246,246,246)" stroke-width="1" opacity="0.27058823529411763" d="M 444.5 266 L 438.5 273 L 444.5 266 Z " /><path fill="rgb(246,246,246)" stroke="rgb(246,246,246)" stroke-width="1" opacity="0.27058823529411763" d="M 74.5 273 L 82 279.5 L 75.5 274 L 74.5 273 Z " /><path fill="rgb(246,246,246)" stroke="rgb(246,246,246)" stroke-width="1" opacity="0.27058823529411763" d="M 436.5 273 L 431.5 279 L 436.5 273 Z " /><path fill="rgb(246,246,246)" stroke="rgb(246,246,246)" stroke-width="1" opacity="0.27058823529411763" d="M 83.5 280 L 88.5 286 L 83.5 280 Z " /><path fill="rgb(246,246,246)" stroke="rgb(246,246,246)" stroke-width="1" opacity="0.27058823529411763" d="M 428.5 280 L 424 285.5 L 423.5 287 L 423 285.5 L 428.5 280 Z " /><path fill="rgb(246,246,246)" stroke="rgb(246,246,246)" stroke-width="1" opacity="0.27058823529411763" d="M 91.5 287 L 97.5 294 L 94 292 L 91.5 287 Z " /><path fill="rgb(246,246,246)" stroke="rgb(246,246,246)" stroke-width="1" opacity="0.27058823529411763" d="M 420.5 287 L 415.5 293 L 420.5 287 Z " /><path fill="rgb(246,246,246)" stroke="rgb(246,246,246)" stroke-width="1" opacity="0.27058823529411763" d="M 99.5 294 L 104.5 300 L 99.5 294 Z " /><path fill="rgb(246,246,246)" stroke="rgb(246,246,246)" stroke-width="1" opacity="0.27058823529411763" d="M 412.5 294 L 407.5 300 L 412.5 294 Z " /><path fill="rgb(246,246,246)" stroke="rgb(246,246,246)" stroke-width="1" opacity="0.27058823529411763" d="M 107.5 301 L 112.5 307 L 107.5 301 Z " /><path fill="rgb(246,246,246)" stroke="rgb(246,246,246)" stroke-width="1" opacity="0.27058823529411763" d="M 404.5 301 L 399.5 307 L 404.5 301 Z " /><path fill="rgb(246,246,246)" stroke="rgb(246,246,246)" stroke-width="1" opacity="0.27058823529411763" d="M 115.5 308 L 120.5 314 L 115.5 308 Z " /><path fill="rgb(246,246,246)" stroke="rgb(246,246,246)" stroke-width="1" opacity="0.27058823529411763" d="M 396.5 308 L 391.5 314 L 396.5 308 Z " /><path fill="rgb(246,246,246)" stroke="rgb(246,246,246)" stroke-width="1" opacity="0.27058823529411763" d="M 123.5 315 L 128.5 321 L 123.5 315 Z " /><path fill="rgb(246,246,246)" stroke="rgb(246,246,246)" stroke-width="1" opacity="0.27058823529411763" d="M 388.5 315 L 383.5 321 L 388.5 315 Z " /><path fill="rgb(246,246,246)" stroke="rgb(246,246,246)" stroke-width="1" opacity="0.27058823529411763" d="M 128.5 326 L 129 328.5 L 128 328.5 L 128.5 326 Z " /><path fill="rgb(246,246,246)" stroke="rgb(246,246,246)" stroke-width="1" opacity="0.27058823529411763" d="M 383.5 326 L 384 328.5 L 383 328.5 L 383.5 326 Z " /><path fill="rgb(246,246,246)" stroke="rgb(246,246,246)" stroke-width="1" opacity="0.27058823529411763" d="M 125.5 339 L 126 341.5 L 125 341.5 L 125.5 339 Z " /><path fill="rgb(246,246,246)" stroke="rgb(246,246,246)" stroke-width="1" opacity="0.27058823529411763" d="M 386.5 339 L 387 341.5 L 386 341.5 L 386.5 339 Z " /><path fill="rgb(246,246,246)" stroke="rgb(246,246,246)" stroke-width="1" opacity="0.27058823529411763" d="M 123.5 348 L 124 350.5 L 123 350.5 L 123.5 348 Z " /><path fill="rgb(246,246,246)" stroke="rgb(246,246,246)" stroke-width="1" opacity="0.27058823529411763" d="M 120.5 361 L 121 363.5 L 120 363.5 L 120.5 361 Z " /><path fill="rgb(246,246,246)" stroke="rgb(246,246,246)" stroke-width="1" opacity="0.27058823529411763" d="M 391.5 361 L 392 363.5 L 391 363.5 L 391.5 361 Z " /><path fill="rgb(246,246,246)" stroke="rgb(246,246,246)" stroke-width="1" opacity="0.27058823529411763" d="M 117.5 374 L 118 376.5 L 117 376.5 L 117.5 374 Z " /><path fill="rgb(246,246,246)" stroke="rgb(246,246,246)" stroke-width="1" opacity="0.27058823529411763" d="M 394.5 374 L 395 376.5 L 394 376.5 L 394.5 374 Z " /><path fill="rgb(246,246,246)" stroke="rgb(246,246,246)" stroke-width="1" opacity="0.27058823529411763" d="M 115.5 383 L 116 386 L 114 385.5 L 115.5 383 Z " /><path fill="rgb(246,246,246)" stroke="rgb(246,246,246)" stroke-width="1" opacity="0.27058823529411763" d="M 397.5 387 L 398 389.5 L 397 389.5 L 397.5 387 Z " /><path fill="rgb(246,246,246)" stroke="rgb(246,246,246)" stroke-width="1" opacity="0.27058823529411763" d="M 112.5 396 L 113 398.5 L 112 398.5 L 112.5 396 Z " /><path fill="rgb(246,246,246)" stroke="rgb(246,246,246)" stroke-width="1" opacity="0.27058823529411763" d="M 399.5 396 L 400 398.5 L 399 398.5 L 399.5 396 Z " /><path fill="rgb(246,246,246)" stroke="rgb(246,246,246)" stroke-width="1" opacity="0.27058823529411763" d="M 109.5 409 L 110 411.5 L 109 411.5 L 109.5 409 Z " /><path fill="rgb(246,246,246)" stroke="rgb(246,246,246)" stroke-width="1" opacity="0.27058823529411763" d="M 402.5 409 L 403 411.5 L 402 411.5 L 402.5 409 Z " /><path fill="rgb(246,246,246)" stroke="rgb(246,246,246)" stroke-width="1" opacity="0.27058823529411763" d="M 251.5 415 L 250.5 417 L 251.5 415 Z " /><path fill="rgb(246,246,246)" stroke="rgb(246,246,246)" stroke-width="1" opacity="0.27058823529411763" d="M 260.5 415 L 261.5 417 L 260.5 415 Z " /><path fill="rgb(246,246,246)" stroke="rgb(246,246,246)" stroke-width="1" opacity="0.27058823529411763" d="M 107.5 418 L 108 420.5 L 107 420.5 L 107.5 418 Z " /><path fill="rgb(246,246,246)" stroke="rgb(246,246,246)" stroke-width="1" opacity="0.27058823529411763" d="M 246.5 418 L 245.5 420 L 246.5 418 Z " /><path fill="rgb(246,246,246)" stroke="rgb(246,246,246)" stroke-width="1" opacity="0.27058823529411763" d="M 265.5 418 L 266.5 420 L 265.5 418 Z " /><path fill="rgb(246,246,246)" stroke="rgb(246,246,246)" stroke-width="1" opacity="0.27058823529411763" d="M 241.5 421 L 240.5 423 L 241.5 421 Z " /><path fill="rgb(246,246,246)" stroke="rgb(246,246,246)" stroke-width="1" opacity="0.27058823529411763" d="M 270.5 421 L 271.5 423 L 270.5 421 Z " /><path fill="rgb(246,246,246)" stroke="rgb(246,246,246)" stroke-width="1" opacity="0.27058823529411763" d="M 236.5 424 L 235.5 426 L 236.5 424 Z " /><path fill="rgb(246,246,246)" stroke="rgb(246,246,246)" stroke-width="1" opacity="0.27058823529411763" d="M 275.5 424 L 279 426.5 L 278.5 428 L 278 426 Q 273.5 427.3 275.5 424 Z " /><path fill="rgb(246,246,246)" stroke="rgb(246,246,246)" stroke-width="1" opacity="0.27058823529411763" d="M 231.5 427 L 230.5 429 L 228.5 430 L 229.5 428 L 231.5 427 Z " /><path fill="rgb(246,246,246)" stroke="rgb(246,246,246)" stroke-width="1" opacity="0.27058823529411763" d="M 280.5 427 L 284 429.5 L 281 429.5 L 280.5 427 Z " /><path fill="rgb(246,246,246)" stroke="rgb(246,246,246)" stroke-width="1" opacity="0.27058823529411763" d="M 226.5 430 L 225.5 432 L 223.5 433 L 224.5 431 L 226.5 430 Z " /><path fill="rgb(246,246,246)" stroke="rgb(246,246,246)" stroke-width="1" opacity="0.27058823529411763" d="M 285.5 430 L 289 432.5 L 287.5 432 L 285.5 430 Z " /><path fill="rgb(246,246,246)" stroke="rgb(246,246,246)" stroke-width="1" opacity="0.27058823529411763" d="M 104.5 431 L 105 433.5 L 104 433.5 L 104.5 431 Z " /><path fill="rgb(246,246,246)" stroke="rgb(246,246,246)" stroke-width="1" opacity="0.27058823529411763" d="M 407.5 431 L 408 433.5 L 407 433.5 L 407.5 431 Z " /><path fill="rgb(246,246,246)" stroke="rgb(246,246,246)" stroke-width="1" opacity="0.27058823529411763" d="M 221.5 433 L 220.5 435 L 218.5 436 L 219.5 434 L 221.5 433 Z " /><path fill="rgb(246,246,246)" stroke="rgb(246,246,246)" stroke-width="1" opacity="0.27058823529411763" d="M 290.5 433 L 294 435.5 L 292.5 435 L 290.5 433 Z " /><path fill="rgb(246,246,246)" stroke="rgb(246,246,246)" stroke-width="1" opacity="0.27058823529411763" d="M 216.5 436 L 215.5 438 L 213.5 439 L 214.5 437 L 216.5 436 Z " /><path fill="rgb(246,246,246)" stroke="rgb(246,246,246)" stroke-width="1" opacity="0.27058823529411763" d="M 295.5 436 L 299 438.5 L 297.5 438 L 295.5 436 Z " /><path fill="rgb(246,246,246)" stroke="rgb(246,246,246)" stroke-width="1" opacity="0.27058823529411763" d="M 211.5 439 L 210.5 441 L 208.5 442 L 209.5 440 L 211.5 439 Z " /><path fill="rgb(246,246,246)" stroke="rgb(246,246,246)" stroke-width="1" opacity="0.27058823529411763" d="M 302.5 440 L 303.5 442 L 302.5 440 Z " /><path fill="rgb(246,246,246)" stroke="rgb(246,246,246)" stroke-width="1" opacity="0.27058823529411763" d="M 206.5 442 L 205.5 444 L 203.5 445 L 204.5 443 L 206.5 442 Z " /><path fill="rgb(246,246,246)" stroke="rgb(246,246,246)" stroke-width="1" opacity="0.27058823529411763" d="M 307.5 443 L 308.5 445 L 307.5 443 Z " /><path fill="rgb(246,246,246)" stroke="rgb(246,246,246)" stroke-width="1" opacity="0.27058823529411763" d="M 101.5 444 L 102 446.5 L 101 446.5 L 101.5 444 Z " /><path fill="rgb(246,246,246)" stroke="rgb(246,246,246)" stroke-width="1" opacity="0.27058823529411763" d="M 410.5 444 L 411 446.5 L 410 446.5 L 410.5 444 Z " /><path fill="rgb(246,246,246)" stroke="rgb(246,246,246)" stroke-width="1" opacity="0.27058823529411763" d="M 199.5 446 L 198.5 448 L 199.5 446 Z " /><path fill="rgb(246,246,246)" stroke="rgb(246,246,246)" stroke-width="1" opacity="0.27058823529411763" d="M 312.5 446 L 313.5 448 L 312.5 446 Z " /><path fill="rgb(246,246,246)" stroke="rgb(246,246,246)" stroke-width="1" opacity="0.27058823529411763" d="M 194.5 449 L 193.5 451 L 194.5 449 Z " /><path fill="rgb(246,246,246)" stroke="rgb(246,246,246)" stroke-width="1" opacity="0.27058823529411763" d="M 317.5 449 L 318.5 451 L 317.5 449 Z " /><path fill="rgb(246,246,246)" stroke="rgb(246,246,246)" stroke-width="1" opacity="0.27058823529411763" d="M 189.5 452 L 188.5 454 L 189.5 452 Z " /><path fill="rgb(246,246,246)" stroke="rgb(246,246,246)" stroke-width="1" opacity="0.27058823529411763" d="M 322.5 452 L 323.5 454 L 322.5 452 Z " /><path fill="rgb(246,246,246)" stroke="rgb(246,246,246)" stroke-width="1" opacity="0.27058823529411763" d="M 99.5 453 L 100 456 L 98 455.5 L 99.5 453 Z " /><path fill="rgb(246,246,246)" stroke="rgb(246,246,246)" stroke-width="1" opacity="0.27058823529411763" d="M 184.5 455 L 183.5 457 L 184.5 455 Z " /><path fill="rgb(246,246,246)" stroke="rgb(246,246,246)" stroke-width="1" opacity="0.27058823529411763" d="M 327.5 455 L 328.5 457 L 327.5 455 Z " /><path fill="rgb(246,246,246)" stroke="rgb(246,246,246)" stroke-width="1" opacity="0.27058823529411763" d="M 413.5 457 L 414 459.5 L 413 459.5 L 413.5 457 Z " /><path fill="rgb(246,246,246)" stroke="rgb(246,246,246)" stroke-width="1" opacity="0.27058823529411763" d="M 179.5 458 L 178.5 460 L 179.5 458 Z " /><path fill="rgb(246,246,246)" stroke="rgb(246,246,246)" stroke-width="1" opacity="0.27058823529411763" d="M 332.5 458 L 333.5 460 L 331 459.5 L 332.5 458 Z " /><path fill="rgb(246,246,246)" stroke="rgb(246,246,246)" stroke-width="1" opacity="0.27058823529411763" d="M 174.5 461 L 173.5 463 L 174.5 461 Z " /><path fill="rgb(246,246,246)" stroke="rgb(246,246,246)" stroke-width="1" opacity="0.27058823529411763" d="M 337.5 461 L 338.5 463 L 337.5 461 Z " /><path fill="rgb(246,246,246)" stroke="rgb(246,246,246)" stroke-width="1" opacity="0.27058823529411763" d="M 169.5 464 L 168.5 466 L 169.5 464 Z " /><path fill="rgb(246,246,246)" stroke="rgb(246,246,246)" stroke-width="1" opacity="0.27058823529411763" d="M 342.5 464 L 343.5 466 L 342.5 464 Z " /><path fill="rgb(246,246,246)" stroke="rgb(246,246,246)" stroke-width="1" opacity="0.27058823529411763" d="M 96.5 466 L 97 468.5 L 96 468.5 L 96.5 466 Z " /><path fill="rgb(246,246,246)" stroke="rgb(246,246,246)" stroke-width="1" opacity="0.27058823529411763" d="M 415.5 466 L 416 468.5 L 415 468.5 L 415.5 466 Z " /><path fill="rgb(246,246,246)" stroke="rgb(246,246,246)" stroke-width="1" opacity="0.27058823529411763" d="M 164.5 467 L 163.5 469 L 164.5 467 Z " /><path fill="rgb(246,246,246)" stroke="rgb(246,246,246)" stroke-width="1" opacity="0.27058823529411763" d="M 347.5 467 L 348.5 469 L 347.5 467 Z " /><path fill="rgb(246,246,246)" stroke="rgb(246,246,246)" stroke-width="1" opacity="0.27058823529411763" d="M 159.5 470 L 158.5 472 L 159.5 470 Z " /><path fill="rgb(246,246,246)" stroke="rgb(246,246,246)" stroke-width="1" opacity="0.27058823529411763" d="M 352.5 470 L 353.5 472 L 352.5 470 Z " /><path fill="rgb(246,246,246)" stroke="rgb(246,246,246)" stroke-width="1" opacity="0.27058823529411763" d="M 154.5 473 L 153.5 475 L 154.5 473 Z " /><path fill="rgb(246,246,246)" stroke="rgb(246,246,246)" stroke-width="1" opacity="0.27058823529411763" d="M 357.5 473 L 358.5 475 L 357.5 473 Z " /><path fill="rgb(246,246,246)" stroke="rgb(246,246,246)" stroke-width="1" opacity="0.27058823529411763" d="M 149.5 476 L 148.5 478 L 149.5 476 Z " /><path fill="rgb(246,246,246)" stroke="rgb(246,246,246)" stroke-width="1" opacity="0.27058823529411763" d="M 362.5 476 L 363.5 478 L 362.5 476 Z " /><path fill="rgb(246,246,246)" stroke="rgb(246,246,246)" stroke-width="1" opacity="0.27058823529411763" d="M 93.5 479 L 94 481.5 L 93 481.5 L 93.5 479 Z " /><path fill="rgb(246,246,246)" stroke="rgb(246,246,246)" stroke-width="1" opacity="0.27058823529411763" d="M 144.5 479 L 143.5 481 L 144.5 479 Z " /><path fill="rgb(246,246,246)" stroke="rgb(246,246,246)" stroke-width="1" opacity="0.27058823529411763" d="M 367.5 479 L 368.5 481 L 367.5 479 Z " /><path fill="rgb(246,246,246)" stroke="rgb(246,246,246)" stroke-width="1" opacity="0.27058823529411763" d="M 418.5 479 L 419 481.5 L 418 481.5 L 418.5 479 Z " /><path fill="rgb(246,246,246)" stroke="rgb(246,246,246)" stroke-width="1" opacity="0.27058823529411763" d="M 139.5 482 L 138.5 484 L 136.5 485 L 137.5 483 L 139.5 482 Z " /><path fill="rgb(246,246,246)" stroke="rgb(246,246,246)" stroke-width="1" opacity="0.27058823529411763" d="M 372.5 482 L 376 484.5 L 375.5 486 L 375 484 L 372.5 482 Z " /><path fill="rgb(246,246,246)" stroke="rgb(246,246,246)" stroke-width="1" opacity="0.27058823529411763" d="M 419.5 484 L 420 489.5 L 419 489.5 L 419.5 484 Z " /><path fill="rgb(246,246,246)" stroke="rgb(246,246,246)" stroke-width="1" opacity="0.27058823529411763" d="M 92.5 485 L 93 488.5 L 92 488.5 L 92.5 485 Z " /><path fill="rgb(246,246,246)" stroke="rgb(246,246,246)" stroke-width="1" opacity="0.27058823529411763" d="M 134.5 485 L 133.5 487 L 131.5 488 L 132.5 486 L 134.5 485 Z " /><path fill="rgb(246,246,246)" stroke="rgb(246,246,246)" stroke-width="1" opacity="0.27058823529411763" d="M 377.5 485 L 381 487.5 L 378 487.5 L 377.5 485 Z " /><path fill="rgb(246,246,246)" stroke="rgb(246,246,246)" stroke-width="1" opacity="0.27058823529411763" d="M 129.5 488 L 128.5 490 L 126.5 491 L 127.5 489 L 129.5 488 Z " /><path fill="rgb(246,246,246)" stroke="rgb(246,246,246)" stroke-width="1" opacity="0.27058823529411763" d="M 382.5 488 L 386 490.5 L 384.5 490 L 382.5 488 Z " /><path fill="rgb(246,246,246)" stroke="rgb(246,246,246)" stroke-width="1" opacity="0.27058823529411763" d="M 124.5 491 L 123.5 493 L 121.5 494 L 122.5 492 L 124.5 491 Z " /><path fill="rgb(246,246,246)" stroke="rgb(246,246,246)" stroke-width="1" opacity="0.27058823529411763" d="M 387.5 491 L 391 493.5 L 389.5 493 L 387.5 491 Z " /><path fill="rgb(246,246,246)" stroke="rgb(246,246,246)" stroke-width="1" opacity="0.27058823529411763" d="M 418.5 491 L 419 492.5 L 414.5 498 L 417 494.5 L 418.5 491 Z " /><path fill="rgb(246,246,246)" stroke="rgb(246,246,246)" stroke-width="1" opacity="0.27058823529411763" d="M 119.5 494 L 118.5 496 L 116.5 497 L 117.5 495 L 119.5 494 Z " /><path fill="rgb(246,246,246)" stroke="rgb(246,246,246)" stroke-width="1" opacity="0.27058823529411763" d="M 392.5 494 L 396 496.5 L 394.5 496 L 392.5 494 Z " /><path fill="rgb(246,246,246)" stroke="rgb(246,246,246)" stroke-width="1" opacity="0.27058823529411763" d="M 95.5 495 L 97.5 498 Q 95.3 498.8 96 496.5 L 95.5 495 Z " /><path fill="rgb(246,246,246)" stroke="rgb(246,246,246)" stroke-width="1" opacity="0.27058823529411763" d="M 114.5 497 L 113.5 499 L 112 498.5 L 114.5 497 Z " /><path fill="rgb(246,246,246)" stroke="rgb(246,246,246)" stroke-width="1" opacity="0.27058823529411763" d="M 399.5 498 L 402 499 L 401.5 501 L 399.5 498 Z " /><path fill="rgb(246,246,246)" stroke="rgb(246,246,246)" stroke-width="1" opacity="0.27058823529411763" d="M 412.5 498 L 411.5 500 L 410 499.5 L 412.5 498 Z " /><path fill="rgb(254,254,254)" stroke="rgb(254,254,254)" stroke-width="1" opacity="0.803921568627451" d="M 263.5 14 L 264.5 16 L 263.5 14 Z " /><path fill="rgb(254,254,254)" stroke="rgb(254,254,254)" stroke-width="1" opacity="0.803921568627451" d="M 166.5 174 L 169 174.5 L 166.5 175 L 166.5 174 Z " /><path fill="rgb(254,254,254)" stroke="rgb(254,254,254)" stroke-width="1" opacity="0.803921568627451" d="M 343.5 174 L 346 174.5 L 343.5 175 L 343.5 174 Z " /><path fill="rgb(254,254,254)" stroke="rgb(254,254,254)" stroke-width="1" opacity="0.803921568627451" d="M 154.5 175 L 158 175.5 L 154.5 176 L 154.5 175 Z " /><path fill="rgb(254,254,254)" stroke="rgb(254,254,254)" stroke-width="1" opacity="0.803921568627451" d="M 354.5 175 L 358 175.5 L 354.5 176 L 354.5 175 Z " /><path fill="rgb(254,254,254)" stroke="rgb(254,254,254)" stroke-width="1" opacity="0.803921568627451" d="M 143.5 176 L 147 176.5 L 143.5 177 L 143.5 176 Z " /><path fill="rgb(254,254,254)" stroke="rgb(254,254,254)" stroke-width="1" opacity="0.803921568627451" d="M 365.5 176 L 369 176.5 L 365.5 177 L 365.5 176 Z " /><path fill="rgb(254,254,254)" stroke="rgb(254,254,254)" stroke-width="1" opacity="0.803921568627451" d="M 132.5 177 L 135 177.5 L 132.5 178 L 132.5 177 Z " /><path fill="rgb(254,254,254)" stroke="rgb(254,254,254)" stroke-width="1" opacity="0.803921568627451" d="M 376.5 177 L 380 177.5 L 376.5 178 L 376.5 177 Z " /><path fill="rgb(254,254,254)" stroke="rgb(254,254,254)" stroke-width="1" opacity="0.803921568627451" d="M 121.5 178 L 124 178.5 L 121.5 179 L 121.5 178 Z " /><path fill="rgb(254,254,254)" stroke="rgb(254,254,254)" stroke-width="1" opacity="0.803921568627451" d="M 388.5 178 L 391 178.5 L 388.5 179 L 388.5 178 Z " /><path fill="rgb(254,254,254)" stroke="rgb(254,254,254)" stroke-width="1" opacity="0.803921568627451" d="M 110.5 179 L 113 179.5 L 110.5 180 L 110.5 179 Z " /><path fill="rgb(254,254,254)" stroke="rgb(254,254,254)" stroke-width="1" opacity="0.803921568627451" d="M 399.5 179 L 402 179.5 L 399.5 180 L 399.5 179 Z " /><path fill="rgb(254,254,254)" stroke="rgb(254,254,254)" stroke-width="1" opacity="0.803921568627451" d="M 99.5 180 L 102 180.5 L 99.5 181 L 99.5 180 Z " /><path fill="rgb(254,254,254)" stroke="rgb(254,254,254)" stroke-width="1" opacity="0.803921568627451" d="M 410.5 180 L 413 180.5 L 410.5 181 L 410.5 180 Z " /><path fill="rgb(254,254,254)" stroke="rgb(254,254,254)" stroke-width="1" opacity="0.803921568627451" d="M 88.5 181 L 91 181.5 L 88.5 182 L 88.5 181 Z " /><path fill="rgb(254,254,254)" stroke="rgb(254,254,254)" stroke-width="1" opacity="0.803921568627451" d="M 421.5 181 L 424 181.5 L 421.5 182 L 421.5 181 Z " /><path fill="rgb(254,254,254)" stroke="rgb(254,254,254)" stroke-width="1" opacity="0.803921568627451" d="M 76.5 182 L 80 182.5 L 76.5 183 L 76.5 182 Z " /><path fill="rgb(254,254,254)" stroke="rgb(254,254,254)" stroke-width="1" opacity="0.803921568627451" d="M 432.5 182 L 436 182.5 L 432.5 183 L 432.5 182 Z " /><path fill="rgb(254,254,254)" stroke="rgb(254,254,254)" stroke-width="1" opacity="0.803921568627451" d="M 65.5 183 L 69 183.5 L 65.5 184 L 65.5 183 Z " /><path fill="rgb(254,254,254)" stroke="rgb(254,254,254)" stroke-width="1" opacity="0.803921568627451" d="M 443.5 183 L 447 183.5 L 443.5 184 L 443.5 183 Z " /><path fill="rgb(254,254,254)" stroke="rgb(254,254,254)" stroke-width="1" opacity="0.803921568627451" d="M 54.5 184 L 57 184.5 L 54.5 185 L 54.5 184 Z " /><path fill="rgb(254,254,254)" stroke="rgb(254,254,254)" stroke-width="1" opacity="0.803921568627451" d="M 454.5 184 L 458 184.5 L 454.5 185 L 454.5 184 Z " /><path fill="rgb(254,254,254)" stroke="rgb(254,254,254)" stroke-width="1" opacity="0.803921568627451" d="M 43.5 185 L 46 185.5 L 43.5 186 L 43.5 185 Z " /><path fill="rgb(254,254,254)" stroke="rgb(254,254,254)" stroke-width="1" opacity="0.803921568627451" d="M 466.5 185 L 469 185.5 L 466.5 186 L 466.5 185 Z " /><path fill="rgb(254,254,254)" stroke="rgb(254,254,254)" stroke-width="1" opacity="0.803921568627451" d="M 32.5 186 L 35 186.5 L 32.5 187 L 32.5 186 Z " /><path fill="rgb(254,254,254)" stroke="rgb(254,254,254)" stroke-width="1" opacity="0.803921568627451" d="M 477.5 186 L 480 186.5 L 477.5 187 L 477.5 186 Z " /><path fill="rgb(254,254,254)" stroke="rgb(254,254,254)" stroke-width="1" opacity="0.803921568627451" d="M 21.5 187 L 24 187.5 L 21.5 188 L 21.5 187 Z " /><path fill="rgb(254,254,254)" stroke="rgb(254,254,254)" stroke-width="1" opacity="0.803921568627451" d="M 488.5 187 L 491 187.5 L 488.5 188 L 488.5 187 Z " /><path fill="rgb(254,254,254)" stroke="rgb(254,254,254)" stroke-width="1" opacity="0.803921568627451" d="M 510.5 207 L 509.5 209 L 510.5 207 Z " /><path fill="rgb(254,254,254)" stroke="rgb(254,254,254)" stroke-width="1" opacity="0.803921568627451" d="M 10.5 216 L 11.5 218 L 10.5 216 Z " /><path fill="rgb(254,254,254)" stroke="rgb(254,254,254)" stroke-width="1" opacity="0.803921568627451" d="M 501.5 216 L 500.5 218 L 501.5 216 Z " /><path fill="rgb(254,254,254)" stroke="rgb(254,254,254)" stroke-width="1" opacity="0.803921568627451" d="M 17.5 222 L 19.5 225 L 17.5 222 Z " /><path fill="rgb(254,254,254)" stroke="rgb(254,254,254)" stroke-width="1" opacity="0.803921568627451" d="M 494.5 222 L 492.5 225 L 494.5 222 Z " /><path fill="rgb(254,254,254)" stroke="rgb(254,254,254)" stroke-width="1" opacity="0.803921568627451" d="M 25.5 229 L 27.5 232 L 25.5 229 Z " /><path fill="rgb(254,254,254)" stroke="rgb(254,254,254)" stroke-width="1" opacity="0.803921568627451" d="M 486.5 229 L 484.5 232 L 486.5 229 Z " /><path fill="rgb(254,254,254)" stroke="rgb(254,254,254)" stroke-width="1" opacity="0.803921568627451" d="M 33.5 236 L 35.5 239 L 33.5 236 Z " /><path fill="rgb(254,254,254)" stroke="rgb(254,254,254)" stroke-width="1" opacity="0.803921568627451" d="M 478.5 236 L 476.5 239 L 478.5 236 Z " /><path fill="rgb(254,254,254)" stroke="rgb(254,254,254)" stroke-width="1" opacity="0.803921568627451" d="M 41.5 243 L 43.5 246 L 41.5 243 Z " /><path fill="rgb(254,254,254)" stroke="rgb(254,254,254)" stroke-width="1" opacity="0.803921568627451" d="M 470.5 243 L 468.5 246 L 470.5 243 Z " /><path fill="rgb(254,254,254)" stroke="rgb(254,254,254)" stroke-width="1" opacity="0.803921568627451" d="M 49.5 250 L 51.5 253 L 49.5 250 Z " /><path fill="rgb(254,254,254)" stroke="rgb(254,254,254)" stroke-width="1" opacity="0.803921568627451" d="M 462.5 250 L 460.5 253 L 462.5 250 Z " /><path fill="rgb(254,254,254)" stroke="rgb(254,254,254)" stroke-width="1" opacity="0.803921568627451" d="M 57.5 257 L 59.5 260 L 57.5 257 Z " /><path fill="rgb(254,254,254)" stroke="rgb(254,254,254)" stroke-width="1" opacity="0.803921568627451" d="M 454.5 257 L 452.5 260 L 454.5 257 Z " /><path fill="rgb(254,254,254)" stroke="rgb(254,254,254)" stroke-width="1" opacity="0.803921568627451" d="M 65.5 264 L 66.5 266 L 65.5 264 Z " /><path fill="rgb(254,254,254)" stroke="rgb(254,254,254)" stroke-width="1" opacity="0.803921568627451" d="M 446.5 264 L 445.5 266 L 446.5 264 Z " /><path fill="rgb(254,254,254)" stroke="rgb(254,254,254)" stroke-width="1" opacity="0.803921568627451" d="M 73.5 271 L 74.5 273 L 73.5 271 Z " /><path fill="rgb(254,254,254)" stroke="rgb(254,254,254)" stroke-width="1" opacity="0.803921568627451" d="M 438.5 271 L 437.5 273 L 438.5 271 Z " /><path fill="rgb(254,254,254)" stroke="rgb(254,254,254)" stroke-width="1" opacity="0.803921568627451" d="M 80.5 277 L 82.5 280 L 80.5 277 Z " /><path fill="rgb(254,254,254)" stroke="rgb(254,254,254)" stroke-width="1" opacity="0.803921568627451" d="M 430.5 278 L 429.5 280 L 430.5 278 Z " /><path fill="rgb(254,254,254)" stroke="rgb(254,254,254)" stroke-width="1" opacity="0.803921568627451" d="M 88.5 284 L 90.5 287 L 88.5 284 Z " /><path fill="rgb(254,254,254)" stroke="rgb(254,254,254)" stroke-width="1" opacity="0.803921568627451" d="M 423.5 284 L 421.5 287 L 423.5 284 Z " /><path fill="rgb(254,254,254)" stroke="rgb(254,254,254)" stroke-width="1" opacity="0.803921568627451" d="M 96.5 291 L 98.5 294 L 96.5 291 Z " /><path fill="rgb(254,254,254)" stroke="rgb(254,254,254)" stroke-width="1" opacity="0.803921568627451" d="M 415.5 291 L 413.5 294 L 415.5 291 Z " /><path fill="rgb(254,254,254)" stroke="rgb(254,254,254)" stroke-width="1" opacity="0.803921568627451" d="M 104.5 298 L 106.5 301 L 104.5 298 Z " /><path fill="rgb(254,254,254)" stroke="rgb(254,254,254)" stroke-width="1" opacity="0.803921568627451" d="M 407.5 298 L 405.5 301 L 407.5 298 Z " /><path fill="rgb(254,254,254)" stroke="rgb(254,254,254)" stroke-width="1" opacity="0.803921568627451" d="M 112.5 305 L 114.5 308 L 112.5 305 Z " /><path fill="rgb(254,254,254)" stroke="rgb(254,254,254)" stroke-width="1" opacity="0.803921568627451" d="M 399.5 305 L 397.5 308 L 399.5 305 Z " /><path fill="rgb(254,254,254)" stroke="rgb(254,254,254)" stroke-width="1" opacity="0.803921568627451" d="M 120.5 312 L 122.5 315 L 120.5 312 Z " /><path fill="rgb(254,254,254)" stroke="rgb(254,254,254)" stroke-width="1" opacity="0.803921568627451" d="M 391.5 312 L 389.5 315 L 391.5 312 Z " /><path fill="rgb(254,254,254)" stroke="rgb(254,254,254)" stroke-width="1" opacity="0.803921568627451" d="M 128.5 319 L 129.5 321 L 128.5 319 Z " /><path fill="rgb(254,254,254)" stroke="rgb(254,254,254)" stroke-width="1" opacity="0.803921568627451" d="M 383.5 319 L 382.5 321 L 383.5 319 Z " /><path fill="rgb(255,255,255)" stroke="rgb(255,255,255)" stroke-width="1" opacity="1" d="M 253.5 12 L 261.5 13 L 266 16 L 331 168.5 L 334.5 174 L 375.5 177 L 376.5 178 L 387.5 178 L 388.5 179 L 398.5 179 L 399.5 180 L 409.5 180 L 410.5 181 L 420.5 181 L 421.5 182 L 431.5 182 L 432.5 183 L 442.5 183 L 443.5 184 L 453.5 184 L 454.5 185 L 465.5 185 L 466.5 186 L 476.5 186 L 477.5 187 L 487.5 187 L 488.5 188 L 498.5 188 L 505.5 190 L 510 194.5 L 512 202.5 Q 509.6 211.5 502.5 216 L 382 320.5 L 382 325.5 L 385 334.5 L 390 360.5 L 393 369.5 L 398 395.5 L 419 483.5 L 419 489.5 L 414.5 497 Q 411.3 500.8 403.5 500 L 259.5 414 L 254.5 413 L 113.5 498 Q 110.2 500.7 103.5 500 L 96 495.5 Q 92 492 93 483.5 L 114 395.5 L 119 369.5 L 122 360.5 L 127 334.5 L 130 325.5 L 130 320.5 L 2 208.5 L 0 199.5 Q 1.5 193 6.5 190 L 13.5 188 L 23.5 188 L 24.5 187 L 68.5 184 L 69.5 183 L 90.5 182 L 91.5 181 L 134.5 178 L 135.5 177 L 168.5 175 L 169.5 174 L 177.5 174 L 179 172.5 L 243 21.5 L 247.5 15 L 253.5 12 Z " /></svg>